<svg fill="#ffffff" height="200px" width="200px" version="1.1" id="Layer_1" xmlns="http://www.w3.org/2000/svg" xmlns:xlink="http://www.w3.org/1999/xlink" viewBox="0 0 512.001 512.001" xml:space="preserve" stroke="#ffffff"><g id="SVGRepo_bgCarrier" stroke-width="0"></g><g id="SVGRepo_tracerCarrier" stroke-linecap="round" stroke-linejoin="round"></g><g id="SVGRepo_iconCarrier"> <g> <g> <g> <path d="M506.513,311.067L253.87,58.423c-2.024-2.026-4.486-3.559-7.195-4.483L140.15,17.593 c-6.758-2.305-14.242-0.568-19.294,4.483L84.709,58.222L31.977,5.491c-7.314-7.315-19.175-7.315-26.49,0 c-7.315,7.315-7.315,19.175,0,26.49l52.732,52.731l-36.14,36.14c-5.051,5.05-6.79,12.534-4.483,19.294l36.347,106.523 c0.924,2.71,2.458,5.172,4.483,7.197l252.645,252.643c7.314,7.315,19.175,7.317,26.49,0l168.954-168.954 C513.83,330.242,513.83,318.382,506.513,311.067z M324.315,466.774L87.993,230.454L56.82,139.092l82.276-82.276l91.362,31.173 l236.32,236.32L324.315,466.774z"></path> <path d="M148.29,148.286c-21.768,21.767-21.768,57.185,0,78.953c21.819,21.819,57.133,21.821,78.953,0 c21.768-21.768,21.768-57.185,0.001-78.953C205.424,126.468,170.11,126.464,148.29,148.286z M200.751,200.748 c-7.177,7.177-18.793,7.177-25.971,0c-7.16-7.161-7.16-18.812,0-25.972c7.177-7.177,18.793-7.177,25.97,0h0.001 C207.911,181.936,207.911,193.588,200.751,200.748z"></path> </g> </g> </g> </g></svg>