<?xml version="1.0" standalone="no"?>
<!DOCTYPE svg PUBLIC "-//W3C//DTD SVG 20010904//EN"
 "http://www.w3.org/TR/2001/REC-SVG-20010904/DTD/svg10.dtd">
<svg version="1.0" xmlns="http://www.w3.org/2000/svg"
 width="500.000000pt" height="500.000000pt" viewBox="0 0 500.000000 500.000000"
 preserveAspectRatio="xMidYMid meet">

<g transform="translate(0.000000,500.000000) scale(0.100000,-0.100000)"
fill="#000000" stroke="none">
<path d="M2065 3897 c-1 -45 1 -72 3 -59 2 13 8 19 14 16 7 -5 8 8 3 42 -4 27
-4 46 -1 43 4 -3 27 -125 52 -270 60 -347 59 -344 46 -335 -7 4 -12 1 -12 -6
0 -7 -83 -54 -183 -104 -103 -52 -182 -98 -182 -105 0 -13 5 -14 48 -7 14 2
25 -16 54 -92 19 -52 36 -96 38 -98 1 -1 55 16 119 39 64 23 115 43 113 45 -2
2 -54 -14 -114 -36 -94 -33 -112 -37 -117 -24 -8 22 -8 24 7 24 33 1 37 15 18
65 -18 48 -42 68 -56 45 -3 -6 1 -31 11 -55 9 -25 15 -48 12 -50 -2 -3 -17 30
-31 72 -15 42 -26 77 -25 78 2 1 45 19 97 39 52 21 163 68 246 106 82 38 161
71 174 72 22 3 25 -3 42 -87 30 -146 24 -135 72 -133 40 1 40 1 7 5 -19 3 -38
7 -42 11 -4 4 -12 49 -19 99 -9 74 -9 96 1 108 10 12 43 15 189 14 215 0 245
-8 249 -61 3 -34 5 -36 27 -28 12 5 26 6 29 3 3 -4 6 -1 6 6 0 7 -9 9 -25 5
-23 -6 -25 -4 -25 33 0 21 5 44 12 51 35 35 -103 62 -313 62 -128 0 -208 -16
-317 -61 -41 -17 -76 -28 -79 -26 -2 3 -24 115 -49 249 -24 133 -46 254 -48
268 -4 20 -2 18 9 -7 26 -57 24 -36 -3 47 -18 52 -32 80 -42 80 -12 0 -15 -16
-15 -83z m25 69 c0 -3 -4 -8 -10 -11 -5 -3 -10 -1 -10 4 0 6 5 11 10 11 6 0
10 -2 10 -4z m727 -559 c50 -7 95 -15 99 -19 4 -5 -89 -8 -208 -8 -257 0 -301
-9 -488 -98 -180 -86 -386 -169 -396 -159 -6 6 337 180 440 222 140 58 215 74
346 74 63 0 156 -5 207 -12z m-848 -409 c1 -5 -3 -8 -9 -8 -5 0 -10 12 -9 28
0 24 1 25 9 7 5 -11 9 -23 9 -27z"/>
<path d="M2092 3815 c0 -16 2 -22 5 -12 2 9 2 23 0 30 -3 6 -5 -1 -5 -18z"/>
<path d="M2051 3774 c0 -11 3 -14 6 -6 3 7 2 16 -1 19 -3 4 -6 -2 -5 -13z"/>
<path d="M2102 3755 c0 -16 2 -22 5 -12 2 9 2 23 0 30 -3 6 -5 -1 -5 -18z"/>
<path d="M3232 3695 l-73 -35 6 -37 c3 -21 15 -83 26 -137 12 -58 17 -101 11
-105 -5 -3 -11 -12 -13 -20 -3 -7 -23 -19 -44 -27 -48 -16 -58 -17 -50 -4 3 6
2 10 -4 10 -5 0 -11 -7 -13 -16 -2 -10 -40 -31 -98 -54 l-95 -38 -9 34 c-8 30
-14 34 -42 34 l-33 0 2 -51 c2 -44 -1 -52 -19 -59 -18 -7 -21 -5 -17 11 3 10
2 39 -1 64 l-7 45 -55 0 -55 0 6 -37 c16 -98 13 -93 58 -94 l42 -1 -30 -13
c-16 -8 -40 -14 -53 -15 -13 0 -21 -4 -17 -9 6 -10 -40 -27 -100 -36 -81 -12
-86 -15 -80 -34 4 -15 -9 -25 -72 -54 -162 -73 -479 -197 -508 -197 -14 0 -48
84 -37 94 3 3 0 6 -7 6 -13 0 -10 -18 15 -77 l13 -33 -65 -20 c-112 -34 -223
-53 -279 -46 -61 7 -84 -8 -66 -43 7 -11 11 -83 11 -171 0 -150 0 -151 21
-145 36 12 132 9 172 -4 30 -10 44 -10 67 -1 20 8 46 10 77 5 65 -11 72 -10
282 41 101 24 188 44 195 43 22 -1 -131 -51 -257 -83 -120 -31 -190 -58 -102
-39 52 10 129 7 183 -8 40 -11 44 -10 66 13 12 14 33 29 45 33 29 9 86 -2 100
-19 7 -8 30 -12 68 -10 59 3 57 0 -9 -11 -46 -7 -50 -29 -13 -73 38 -45 74
-56 163 -48 42 4 85 7 95 6 45 -1 74 -7 92 -17 58 -32 181 -24 271 19 l48 22
-29 7 c-17 3 -55 17 -85 31 l-55 25 42 21 c45 24 123 29 167 12 19 -7 36 -4
72 12 38 16 68 21 141 20 51 0 93 2 93 5 0 18 -25 42 -60 58 -30 13 -39 23
-34 34 3 9 22 61 41 116 35 100 196 483 232 553 11 20 36 50 56 66 40 31 65
79 64 123 0 22 -2 24 -8 9 -6 -15 -10 -11 -26 23 -21 47 -14 67 9 24 8 -15 15
-22 16 -14 0 21 -101 111 -125 111 -25 -1 -50 -20 -50 -39 0 -9 -26 -20 -75
-32 -87 -21 -103 -23 -95 -9 3 6 1 10 -4 10 -6 0 -11 -6 -11 -14 0 -8 -7 -17
-16 -20 -24 -9 -36 -7 -28 5 5 8 -1 10 -19 5 -24 -6 -27 -3 -42 49 -20 70 -35
150 -35 187 0 26 7 32 73 62 39 19 67 35 62 35 -6 1 -43 -15 -83 -34z m343
-250 c-1 -24 -5 -30 -25 -32 l-25 -2 25 8 c17 6 19 9 8 10 -10 1 -18 8 -18 17
0 10 5 14 16 10 8 -3 12 -2 9 4 -10 17 -25 11 -35 -12 -5 -14 -9 -17 -9 -7 -1
20 20 40 39 37 9 -2 15 -14 15 -33z m59 -26 c-4 -6 -11 -6 -20 2 -21 17 -17
31 6 19 11 -6 18 -15 14 -21z m-128 -7 c-3 -5 -31 -14 -63 -22 -162 -36 -442
-145 -828 -322 -427 -196 -629 -274 -865 -334 -172 -43 -291 -46 -266 -5 3 5
25 4 51 -1 123 -26 490 98 1071 363 374 170 592 253 804 308 86 22 103 24 96
13z m154 -99 c0 -16 -5 -35 -10 -43 -8 -12 -10 -9 -10 13 0 35 -28 97 -47 104
-7 3 -10 10 -6 16 11 17 73 -59 73 -90z m-400 67 c0 -5 -5 -10 -11 -10 -5 0
-7 5 -4 10 3 6 8 10 11 10 2 0 4 -4 4 -10z m248 -82 c-44 -117 -174 -516 -182
-558 -3 -19 13 19 38 85 156 426 151 416 167 403 42 -35 41 -39 -22 -178 -33
-74 -98 -229 -144 -345 -45 -115 -86 -217 -89 -225 -3 -8 -3 5 1 30 4 25 7 60
7 78 0 18 3 28 6 22 4 -7 7 10 6 37 -1 26 2 73 6 103 7 53 7 54 -4 13 l-11
-43 -111 -34 c-225 -70 -450 -126 -412 -102 10 6 31 21 45 33 15 12 61 40 102
63 101 57 82 49 -132 -52 -155 -73 -201 -91 -289 -108 -58 -11 -109 -20 -115
-20 -5 0 35 30 90 66 98 65 334 188 487 254 43 18 76 35 74 37 -7 7 -372 -154
-596 -264 -235 -115 -235 -115 -345 -129 -114 -14 -484 -31 -475 -22 3 3 45
11 94 18 132 17 342 66 497 116 128 41 462 170 592 228 63 28 80 46 20 21
-504 -211 -822 -310 -1124 -350 -123 -17 -202 -15 -184 3 3 4 104 33 223 65
119 31 204 55 187 53 -16 -2 -92 -15 -168 -28 l-138 -23 -37 20 c-39 21 -53
55 -33 79 7 8 49 15 114 19 230 14 493 89 785 222 132 60 89 50 -59 -14 -273
-119 -525 -186 -724 -195 -60 -2 -94 -2 -75 0 148 20 478 125 708 226 64 28
169 72 232 98 63 26 216 90 340 142 124 53 278 114 343 138 130 47 286 92 296
85 4 -2 13 0 21 6 8 5 16 9 17 9 1 0 -12 -37 -29 -82z m-288 68 c0 -3 -4 -8
-10 -11 -5 -3 -10 -1 -10 4 0 6 5 11 10 11 6 0 10 -2 10 -4z m388 -38 c17 -17
15 -79 -4 -106 -19 -27 -22 -27 -58 4 l-29 26 21 44 c22 45 46 56 70 32z
m-523 -738 c-10 -11 -40 -34 -66 -51 -44 -28 -48 -33 -43 -62 l6 -32 -19 24
-20 23 -62 -32 c-35 -17 -68 -29 -74 -27 -7 2 20 20 60 40 53 27 71 41 67 52
-8 19 -8 19 -95 -11 -140 -48 -439 -117 -494 -113 -5 0 51 16 125 35 74 19
211 57 303 85 93 27 173 47 178 44 5 -4 9 -13 9 -21 0 -21 9 -18 75 26 68 45
76 48 50 20z m-1488 -156 c-3 -3 -12 -4 -19 -1 -8 3 -5 6 6 6 11 1 17 -2 13
-5z"/>
<path d="M3443 3319 c-24 -22 -43 -46 -43 -53 0 -8 -51 -25 -132 -45 -177 -44
-521 -174 -633 -239 -40 -23 -6 -11 105 39 223 99 464 182 603 208 44 8 47 7
48 -13 1 -11 6 -1 13 23 8 31 24 54 56 82 25 22 41 39 35 39 -5 0 -29 -19 -52
-41z"/>
<path d="M3382 3170 c0 -14 2 -19 5 -12 2 6 2 18 0 25 -3 6 -5 1 -5 -13z"/>
<path d="M3371 3124 c0 -11 3 -14 6 -6 3 7 2 16 -1 19 -3 4 -6 -2 -5 -13z"/>
<path d="M3362 3080 c0 -14 2 -19 5 -12 2 6 2 18 0 25 -3 6 -5 1 -5 -13z"/>
<path d="M2925 3035 c-109 -33 -248 -87 -520 -203 -268 -114 -486 -174 -680
-190 l-100 -8 66 -8 c85 -10 235 6 361 39 139 35 270 87 543 213 132 61 292
128 355 151 140 49 126 53 -25 6z"/>
<path d="M3352 3030 c0 -14 2 -19 5 -12 2 6 2 18 0 25 -3 6 -5 1 -5 -13z"/>
<path d="M3342 2980 c0 -14 2 -19 5 -12 2 6 2 18 0 25 -3 6 -5 1 -5 -13z"/>
<path d="M2550 2945 c-14 -8 -20 -14 -15 -14 6 0 21 6 35 14 14 8 21 14 15 14
-5 0 -21 -6 -35 -14z"/>
<path d="M3332 2930 c0 -14 2 -19 5 -12 2 6 2 18 0 25 -3 6 -5 1 -5 -13z"/>
<path d="M3322 2880 c0 -14 2 -19 5 -12 2 6 2 18 0 25 -3 6 -5 1 -5 -13z"/>
<path d="M3312 2830 c0 -14 2 -19 5 -12 2 6 2 18 0 25 -3 6 -5 1 -5 -13z"/>
<path d="M3105 2780 c-44 -21 -75 -39 -70 -39 6 0 46 17 90 38 44 22 76 39 70
39 -5 0 -46 -17 -90 -38z"/>
<path d="M2558 2803 c-22 -5 -24 -33 -3 -33 20 0 65 22 65 32 0 8 -32 9 -62 1z"/>
<path d="M3301 2654 c0 -11 3 -14 6 -6 3 7 2 16 -1 19 -3 4 -6 -2 -5 -13z"/>
<path d="M1958 2603 c7 -3 16 -2 19 1 4 3 -2 6 -13 5 -11 0 -14 -3 -6 -6z"/>
<path d="M2112 3690 c0 -19 2 -27 5 -17 2 9 2 25 0 35 -3 9 -5 1 -5 -18z"/>
<path d="M2122 3625 c0 -16 2 -22 5 -12 2 9 2 23 0 30 -3 6 -5 -1 -5 -18z"/>
<path d="M3142 3630 c0 -14 2 -19 5 -12 2 6 2 18 0 25 -3 6 -5 1 -5 -13z"/>
<path d="M2132 3565 c0 -16 2 -22 5 -12 2 9 2 23 0 30 -3 6 -5 -1 -5 -18z"/>
<path d="M2142 3505 c0 -16 2 -22 5 -12 2 9 2 23 0 30 -3 6 -5 -1 -5 -18z"/>
<path d="M2152 3450 c-1 -14 3 -43 7 -65 6 -26 9 -31 9 -15 1 14 -3 43 -7 65
-6 26 -9 31 -9 15z"/>
<path d="M3468 3453 c7 -3 16 -2 19 1 4 3 -2 6 -13 5 -11 0 -14 -3 -6 -6z"/>
<path d="M2527 3303 c-30 -3 -37 -8 -33 -21 3 -9 8 -38 12 -64 l6 -48 47 0
c67 0 75 8 68 69 -9 77 -4 74 -100 64z m17 -55 c10 -39 7 -68 -8 -68 -15 0
-31 63 -21 80 10 17 22 11 29 -12z"/>
<path d="M2980 3300 c-8 -5 -10 -10 -5 -10 6 0 17 5 25 10 8 5 11 10 5 10 -5
0 -17 -5 -25 -10z"/>
<path d="M2353 3265 c-37 -16 -37 -13 -22 -87 l11 -56 47 15 c25 9 47 17 49
18 2 2 -2 30 -9 64 -13 67 -19 71 -76 46z"/>
<path d="M2243 3225 c-18 -8 -31 -20 -29 -27 2 -7 10 -35 17 -61 11 -45 14
-48 38 -42 14 4 30 10 34 14 9 9 -12 131 -22 131 -3 -1 -21 -7 -38 -15z"/>
<path d="M2134 3178 c-21 -10 -22 -11 -6 -67 8 -31 16 -57 17 -59 1 -1 16 3
34 9 26 9 32 16 27 33 -2 11 -8 38 -11 59 -8 39 -21 45 -61 25z"/>
<path d="M2042 3137 c-26 -12 -26 -36 0 -95 13 -28 14 -29 44 -16 l32 13 -17
56 c-17 58 -21 61 -59 42z"/>
<path d="M2588 3133 c12 -2 30 -2 40 0 9 3 -1 5 -23 4 -22 0 -30 -2 -17 -4z"/>
<path d="M2420 3110 c-18 -12 -2 -12 25 0 13 6 15 9 5 9 -8 0 -22 -4 -30 -9z"/>
<path d="M2335 3075 c-27 -13 -45 -23 -40 -24 6 0 33 11 60 24 28 13 46 23 40
24 -5 0 -32 -11 -60 -24z"/>
<path d="M2250 3040 c-8 -5 -10 -10 -5 -10 6 0 17 5 25 10 8 5 11 10 5 10 -5
0 -17 -5 -25 -10z"/>
<path d="M2200 3020 c-8 -5 -10 -10 -5 -10 6 0 17 5 25 10 8 5 11 10 5 10 -5
0 -17 -5 -25 -10z"/>
<path d="M1908 2913 c7 -3 16 -2 19 1 4 3 -2 6 -13 5 -11 0 -14 -3 -6 -6z"/>
<path d="M1525 2360 l-30 -8 30 -2 c30 -1 30 -2 -10 -16 -65 -24 -61 -32 17
-28 63 3 67 2 31 -6 -79 -17 -79 -27 0 -22 45 3 96 -1 128 -9 l54 -13 -53 -8
c-68 -10 -101 -27 -57 -28 17 -1 39 -5 50 -10 l20 -9 -20 -1 c-11 -1 -44 -9
-74 -18 l-54 -17 79 1 c68 1 88 5 143 33 68 35 169 60 241 61 82 1 16 22 -94
30 -56 4 -82 8 -58 9 23 0 42 5 42 9 0 5 -18 17 -41 27 -34 16 -48 17 -82 8
-24 -6 -65 -7 -97 -3 -30 4 -48 8 -40 10 19 3 -37 18 -70 18 -14 0 -38 -4 -55
-8z"/>
<path d="M3306 2281 c-18 -33 -12 -39 17 -17 9 7 27 12 40 9 12 -2 45 3 72 11
l50 14 -51 1 c-28 1 -65 4 -82 7 -27 5 -32 2 -46 -25z"/>
<path d="M3200 2198 c-14 -5 -65 -12 -114 -14 -68 -3 -101 -9 -135 -26 -63
-31 -168 -32 -228 -2 -33 17 -45 19 -53 9 -22 -27 -134 -68 -199 -73 -64 -5
-65 -6 -36 -18 41 -18 154 -17 206 1 35 13 53 14 98 4 62 -13 145 -6 198 16
19 8 61 19 93 24 97 16 140 31 173 61 35 32 35 34 -3 18z"/>
<path d="M2225 2103 c-25 -9 -57 -12 -86 -9 -32 4 -55 1 -78 -10 -62 -31 -143
-31 -173 0 -12 11 -21 7 -59 -28 l-44 -42 68 -2 c37 -2 67 1 67 6 0 5 46 13
101 17 119 8 188 26 226 60 32 28 32 28 -22 8z"/>
<path d="M2965 2079 c-22 -10 -61 -21 -88 -25 -26 -4 -50 -11 -54 -17 -7 -12
122 -2 160 12 16 7 37 5 62 -3 23 -8 32 -16 24 -19 -29 -11 27 -7 76 7 52 14
120 45 113 52 -2 2 -20 -1 -39 -6 -51 -15 -142 -12 -165 5 -25 19 -40 18 -89
-6z"/>
<path d="M2235 1993 c-65 -34 -151 -63 -186 -63 -15 0 -31 -4 -34 -10 -9 -14
64 -12 155 4 41 8 77 12 78 11 2 -2 -9 -11 -25 -20 -26 -15 -14 -15 192 -10
121 2 240 9 265 14 45 8 45 8 -25 11 l-70 2 115 14 c63 8 119 15 125 17 13 5
-236 19 -297 17 -26 0 -86 8 -133 20 -48 11 -92 20 -98 20 -7 -1 -34 -13 -62
-27z m333 -50 c-10 -2 -28 -2 -40 0 -13 2 -5 4 17 4 22 1 32 -1 23 -4z"/>
<path d="M2498 1993 c7 -3 16 -2 19 1 4 3 -2 6 -13 5 -11 0 -14 -3 -6 -6z"/>
</g>
</svg>
